{"title":"D:Rychly Prachy (PRAHA - 05.06.2011) - Romana","uid":6450164,"size":498574150,"categoryP":"porn","categoryS":"movies","magnet":"?xt=urn:btih:34a9938bc2ac44ec14629b85f63bef3acdc7e210&amp;dn=D%3ARychly+Prachy+%28PRAHA+-+05.06.2011%29+-+Romana&amp;tr=udp%3A%2F%2Ftracker.openbittorrent.com%3A80&amp;tr=udp%3A%2F%2Fopen.demonii.com%3A1337&amp;tr=udp%3A%2F%2Ftracker.coppersurfer.tk%3A6969&amp;tr=udp%3A%2F%2Fexodus.desync.com%3A6969","seeders":0,"leechers":2,"uploader":null,"files":5,"time":1307396606,"description":"\n\n                Rychly Prachy (PRAHA - 05.06.2011) - Romana\n\n\n\nScreen:         &lt;a href=&quot; http://image.bayimg.com/naipmaadh.jpg&quot; rel=&quot;nofollow&quot; target=&quot;_NEW&quot;&gt; http://image.bayimg.com/naipmaadh.jpg&lt;/a&gt;\nOficial website: http://rychlyprachy.cz\nDirect Link:    &lt;a href=&quot; http://rychlyprachy.cz/video53.cz.html&quot; rel=&quot;nofollow&quot; target=&quot;_NEW&quot;&gt; http://rychlyprachy.cz/video53.cz.html&lt;/a&gt;\n\n\n\nGeneral\nComplete name                    : Rychly Prachy (PRAHA - 05.06.2011) - Romana.wmv\nFormat                           : Windows Media\nFile size                        : 475 MiB\nDuration                         : 29mn 21s\nOverall bit rate mode            : Constant\nOverall bit rate                 : 2 264 Kbps\nMaximum Overall bit rate         : 2 274 Kbps\nEncoded date                     : UTC 2011-06-05 23:11:53.136\nSfOriginalFPS                    : 300000\n\nVideo\nID                               : 2\nFormat                           : VC-1\nFormat profile                   : MP@ML\nCodec ID                         : WMV3\nCodec ID/Info                    : Windows Media Video 9\nCodec ID/Hint                    : WMV3\nDescription of the codec         : Windows Media Video 9 - Professional\nDuration                         : 29mn 21s\nBit rate mode                    : Constant\nBit rate                         : 2 189 Kbps\nWidth                            : 640 pixels\nHeight                           : 480 pixels\nDisplay aspect ratio             : 4:3\nFrame rate                       : 30.000 fps\nBit depth                        : 8 bits\nScan type                        : Progressive\nCompression mode                 : Lossy\nBits/(Pixel*Frame)               : 0.237\nStream size                      : 460 MiB (97%)\nLanguage                         : Czech\n\nAudio\nID                               : 1\nFormat                           : WMA\nFormat version                   : Version 2\nCodec ID                         : 161\nCodec ID/Info                    : Windows Media Audio\nDescription of the codec         : Windows Media Audio 9.2 -  64 kbps, 44 kHz, stereo (A/V) 1-pass CBR\nDuration                         : 29mn 21s\nBit rate mode                    : Constant\nBit rate                         : 64.0 Kbps\nChannel(s)                       : 2 channels\nSampling rate                    : 44.1 KHz\nBit depth                        : 16 bits\nStream size                      : 13.4 MiB (3%)\nLanguage                         : Czech\n\nHash MD5                         : c588052d7edbbe0babfb5c50c1431060\n\n\n\n","torrent":{"xt":"urn:btih:34a9938bc2ac44ec14629b85f63bef3acdc7e210","amp;dn":"D%3ARychly+Prachy+%28PRAHA+-+05.06.2011%29+-+Romana","amp;tr":["udp%3A%2F%2Ftracker.openbittorrent.com%3A80","udp%3A%2F%2Fopen.demonii.com%3A1337","udp%3A%2F%2Ftracker.coppersurfer.tk%3A6969","udp%3A%2F%2Fexodus.desync.com%3A6969"],"infoHash":"34a9938bc2ac44ec14629b85f63bef3acdc7e210","infoHashBuffer":{"type":"Buffer","data":[52,169,147,139,194,172,68,236,20,98,155,133,246,59,239,58,205,199,226,16]},"announce":[],"urlList":[]}}